# xmcd
#
# Track frame offsets: 
#        150
#        17562
#        32287
#        49093
#        69241
#        86069
#        103647
#        123098
#        137636
#        153409
#        171126
#        187869
#        203407
#        216416
#        233470
#
# Disc length: 3318 seconds
#
# Revision: 0
# Processed by: cddbd v1.5.2PL0 Copyright (c) Steve Scherf et al.
# Submitted via: ExactAudioCopy v1.3
#
DISCID=b30cf40f
DTITLE=Various Artist - 昭和 永遠の名曲大全集 1946-1963 Disc 2 COCP-40151-4
DYEAR=1900
DGENRE=JPop
TTITLE0=奈良光枝 - 赤い靴のタンゴ
TTITLE1=美空ひばり - 東京キッド
TTITLE2=岡本敦郎 - 白い花の咲く頃
TTITLE3=美空ひばり - 越後獅子の唄
TTITLE4=並木路子 - 森の水車
TTITLE5=伊藤久男 - あざみの歌
TTITLE6=美空ひばり - リンゴ追分
TTITLE7=神楽坂はん子 - ゲイシャ・ワルツ
TTITLE8=美空ひばり - お祭りマンボ
TTITLE9=織井茂子 - 君の名は
TTITLE10=織井茂子 - 黒百合の歌
TTITLE11=岡本敦郎 - 高原列車は行く
TTITLE12=越路吹雪 - 愛の讃歌
TTITLE13=島倉千代子 - この世の花
TTITLE14=岡晴夫 - 逢いたかったぜ
EXTD=
EXTT0=
EXTT1=
EXTT2=
EXTT3=
EXTT4=
EXTT5=
EXTT6=
EXTT7=
EXTT8=
EXTT9=
EXTT10=
EXTT11=
EXTT12=
EXTT13=
EXTT14=
PLAYORDER=
